<svg width="25" height="24" viewBox="0 0 25 24" fill="none" xmlns="http://www.w3.org/2000/svg">
<path d="M12.5 0C5.6125 0 0 5.388 0 12C0 18.612 5.6125 24 12.5 24C19.3875 24 25 18.612 25 12C25 5.388 19.3875 0 12.5 0ZM17.5 12.9H13.4375V16.8C13.4375 17.292 13.0125 17.7 12.5 17.7C11.9875 17.7 11.5625 17.292 11.5625 16.8V12.9H7.5C6.9875 12.9 6.5625 12.492 6.5625 12C6.5625 11.508 6.9875 11.1 7.5 11.1H11.5625V7.2C11.5625 6.708 11.9875 6.3 12.5 6.3C13.0125 6.3 13.4375 6.708 13.4375 7.2V11.1H17.5C18.0125 11.1 18.4375 11.508 18.4375 12C18.4375 12.492 18.0125 12.9 17.5 12.9Z" fill="#6A4085"/>
</svg>
