<svg width="30" height="30" viewBox="0 0 30 30" fill="none" xmlns="http://www.w3.org/2000/svg">
<g clip-path="url(#clip0_224_158)">
<path d="M25 17.5H19.625L20.5375 12.5H25C25.3315 12.5 25.6495 12.3683 25.8839 12.1339C26.1183 11.8995 26.25 11.5815 26.25 11.25C26.25 10.9185 26.1183 10.6005 25.8839 10.3661C25.6495 10.1317 25.3315 10 25 10H20.9875L21.85 5.2375C21.8841 5.07038 21.8836 4.89806 21.8486 4.73113C21.8136 4.5642 21.7448 4.40621 21.6464 4.26687C21.5481 4.12752 21.4222 4.00979 21.2767 3.9209C21.1311 3.83201 20.9689 3.77385 20.8 3.75C20.6321 3.71 20.4577 3.70521 20.2878 3.73594C20.118 3.76666 19.9563 3.83224 19.813 3.92853C19.6698 4.02483 19.548 4.14975 19.4554 4.29544C19.3628 4.44112 19.3014 4.6044 19.275 4.775L18.3375 10H13.4875L14.35 5.2375C14.3841 5.07038 14.3836 4.89806 14.3486 4.73113C14.3136 4.5642 14.2448 4.40621 14.1464 4.26687C14.0481 4.12752 13.9222 4.00979 13.7767 3.9209C13.6311 3.83201 13.4689 3.77385 13.3 3.75C13.1321 3.71 12.9577 3.70521 12.7878 3.73594C12.618 3.76666 12.4563 3.83224 12.313 3.92853C12.1698 4.02483 12.048 4.14975 11.9554 4.29544C11.8628 4.44112 11.8014 4.6044 11.775 4.775L10.8375 10H5C4.66848 10 4.35054 10.1317 4.11612 10.3661C3.8817 10.6005 3.75 10.9185 3.75 11.25C3.75 11.5815 3.8817 11.8995 4.11612 12.1339C4.35054 12.3683 4.66848 12.5 5 12.5H10.375L9.4625 17.5H5C4.66848 17.5 4.35054 17.6317 4.11612 17.8661C3.8817 18.1005 3.75 18.4185 3.75 18.75C3.75 19.0815 3.8817 19.3995 4.11612 19.6339C4.35054 19.8683 4.66848 20 5 20H9.0125L8.15 24.7625C8.11592 24.9296 8.1164 25.1019 8.15141 25.2689C8.18642 25.4358 8.25522 25.5938 8.35358 25.7331C8.45194 25.8725 8.57777 25.9902 8.72334 26.0791C8.8689 26.168 9.03112 26.2262 9.2 26.25C9.36792 26.29 9.54231 26.2948 9.71218 26.2641C9.88204 26.2333 10.0437 26.1678 10.187 26.0715C10.3302 25.9752 10.452 25.8502 10.5446 25.7046C10.6372 25.5589 10.6986 25.3956 10.725 25.225L11.6625 20H16.5125L15.65 24.7625C15.6159 24.9296 15.6164 25.1019 15.6514 25.2689C15.6864 25.4358 15.7552 25.5938 15.8536 25.7331C15.9519 25.8725 16.0778 25.9902 16.2233 26.0791C16.3689 26.168 16.5311 26.2262 16.7 26.25C16.8679 26.29 17.0423 26.2948 17.2122 26.2641C17.382 26.2333 17.5437 26.1678 17.687 26.0715C17.8302 25.9752 17.952 25.8502 18.0446 25.7046C18.1372 25.5589 18.1986 25.3956 18.225 25.225L19.1625 20H25C25.3315 20 25.6495 19.8683 25.8839 19.6339C26.1183 19.3995 26.25 19.0815 26.25 18.75C26.25 18.4185 26.1183 18.1005 25.8839 17.8661C25.6495 17.6317 25.3315 17.5 25 17.5ZM12.125 17.5L13.0375 12.5H17.875L16.9625 17.5H12.125Z" fill="#6A4085" stroke="#6A4085" stroke-width="0.00064"/>
</g>
<defs>
<clipPath id="clip0_224_158">
<rect width="30" height="30" fill="white"/>
</clipPath>
</defs>
</svg>
