<svg width="30" height="30" viewBox="0 0 30 30" fill="none" xmlns="http://www.w3.org/2000/svg">
<path d="M8.12498 8.74999C9.95167 6.92331 11.9919 5.52373 13.3719 4.67609C14.3777 4.05831 15.6223 4.05831 16.628 4.67609C18.008 5.52373 20.0483 6.92331 21.875 8.74999C25.8354 12.7105 25.625 15 25.625 18.75C25.625 20.5122 25.4869 21.9985 25.3407 23.079C25.1867 24.2157 24.1952 25 23.048 25H21.25C19.8693 25 18.75 23.8807 18.75 22.5V20C18.75 19.0054 18.3549 18.0516 17.6517 17.3484C16.9484 16.6451 15.9945 16.25 15 16.25C14.0054 16.25 13.0517 16.6451 12.3483 17.3484C11.6451 18.0516 11.25 19.0054 11.25 20V22.5C11.25 23.8807 10.1307 25 8.74998 25H6.95193C5.80475 25 4.81329 24.2157 4.65934 23.0789C4.51302 21.9985 4.37499 20.5122 4.37499 18.75C4.37499 15 4.16449 12.7105 8.12498 8.74999Z" stroke="#6A4085" stroke-width="2.88" stroke-linecap="round" stroke-linejoin="round"/>
</svg>
