<svg width="30" height="30" viewBox="0 0 30 30" fill="none" xmlns="http://www.w3.org/2000/svg">
<path d="M20.518 4.79532C23.8189 4.79532 26.4955 7.47188 26.4955 10.7728C26.4955 12.4688 25.7886 13.9969 24.6543 15.0853L15.0008 24.7875L5.17207 14.91C4.14082 13.8356 3.5052 12.3797 3.5052 10.7728C3.5052 7.47094 6.18176 4.79532 9.4827 4.79532C11.9689 4.79532 14.0999 6.31407 15.0008 8.47407C15.9018 6.31407 18.0318 4.79532 20.518 4.79532ZM20.518 3.79594C18.3196 3.79594 16.3002 4.81688 14.9999 6.49969C13.7005 4.81688 11.6811 3.79594 9.48176 3.79594C5.63426 3.79594 2.50488 6.92626 2.50488 10.7728C2.50488 12.5803 3.19582 14.2959 4.4502 15.6028L14.9999 26.205L25.3621 15.7913C26.7308 14.4769 27.4949 12.69 27.4949 10.7738C27.4949 6.92626 24.3646 3.79688 20.518 3.79688V3.79594Z" fill="#6A4085" stroke="#6A4085" stroke-width="1.92"/>
</svg>
