<svg width="548" height="481" viewBox="0 0 548 481" fill="none" xmlns="http://www.w3.org/2000/svg">
<g clip-path="url(#clip0_99_21)">
<path d="M267.173 365.054C280.218 369.334 288.692 379.884 286.101 388.616C283.509 397.347 270.835 400.954 257.786 396.67C252.551 395.034 247.765 392.103 243.827 388.122L188.772 369.251L197.742 342.265L251.065 363.734C256.457 362.815 261.981 363.267 267.173 365.054Z" fill="#FFB6B6"/>
<path d="M149.23 167.049C136.102 165.413 124.015 174.745 121.569 188.41C112.847 237.148 94.3206 342.541 96.7603 345.107C99.9365 348.448 218.515 385.197 218.515 385.197L232.278 354.016L153.932 313.926L171.114 197.357C173.296 182.558 163.368 168.81 149.23 167.049Z" fill="#E6E6E6"/>
<path d="M292.087 415.75C279.358 420.98 266.475 418.311 263.312 409.79C260.149 401.269 267.904 390.125 280.638 384.895C285.697 382.733 291.176 381.876 296.614 382.397L350.812 360.956L359.836 387.922L305.448 406.196C301.784 410.458 297.202 413.734 292.087 415.75Z" fill="#A0616A"/>
<path d="M370.245 184.301C383.239 181.741 395.895 190.198 399.208 203.659C411.025 251.67 436.242 355.516 433.972 358.248C431.017 361.806 315.054 406.853 315.054 406.853L299.33 376.716L374.938 331.179L350.347 216.088C347.225 201.477 356.251 187.058 370.245 184.301Z" fill="#E6E6E6"/>
<path d="M139.93 174.05L146.388 131.599L102.8 112.921L96.3425 177.446L139.93 174.05Z" fill="#FFB6B6"/>
<path d="M394.502 180.731L388.045 138.281L431.633 119.603L438.09 184.127L394.502 180.731Z" fill="#A0616A"/>
<path d="M128.915 145.245C153.464 145.245 173.365 124.314 173.365 98.4928C173.365 72.6721 153.464 51.7402 128.915 51.7402C104.367 51.7402 84.4662 72.6721 84.4662 98.4928C84.4662 124.314 104.367 145.245 128.915 145.245Z" fill="#FFB6B6"/>
<path d="M125.368 35.6373C126.654 36.427 128.377 35.2322 128.789 33.727C129.202 32.2218 128.721 30.6237 128.245 29.1395L125.847 21.6681C124.146 16.3692 122.341 10.8851 118.657 6.85193C113.097 0.764545 104.261 -0.784065 96.3064 0.337848C86.0915 1.7786 76.0129 7.59649 71.2633 17.2171C66.5137 26.8378 68.5358 40.262 77.118 46.2643C64.8865 61.0103 60.6227 77.4442 61.2959 97.0008C61.9692 116.557 82.2311 134.556 95.4446 148.333C98.3954 146.451 101.078 137.634 99.4553 134.431C97.8326 131.228 100.158 127.517 98.1479 124.567C96.1383 121.616 94.457 126.314 96.4887 123.38C97.7707 121.529 92.767 117.271 94.6727 116.163C103.89 110.804 106.956 98.7191 112.745 89.4652C119.727 78.3032 131.678 70.7442 144.325 69.4902C151.292 68.7994 158.651 70.0506 164.361 74.3048C170.072 78.5591 173.769 86.1614 172.445 93.3888C175.874 89.7262 177.581 84.3586 176.937 79.2627C176.294 74.1668 173.313 69.4545 169.093 66.8612C171.659 57.9361 169.461 47.6697 163.505 40.7632C157.549 33.8567 133.39 35.033 124.696 36.8507" fill="#2F2E41"/>
<path d="M124.018 69.761C112.502 71.0686 104.187 81.5608 97.1658 91.2504C93.119 96.8353 88.88 103.003 88.9816 110.024C89.0843 117.123 93.5966 123.211 95.7531 129.939C99.278 140.935 95.8426 154.018 87.4518 161.552C95.7429 163.207 104.706 156.668 106.137 147.92C107.803 137.737 100.464 127.908 101.333 117.616C102.099 108.548 108.893 101.569 114.669 94.7888C120.444 88.0087 125.869 79.0117 123.212 70.3477" fill="#2F2E41"/>
<path d="M144.966 166.932L94.6429 152.455L42.7649 174.727L20.5316 359.584L147.58 364.039V334.221C147.58 334.221 169.813 305.018 165.578 262.701L161.343 220.384L144.966 166.932Z" fill="#E6E6E6"/>
<path d="M168.225 242.099L68.7039 236.531L41.7062 317.267C41.7062 317.267 8.35612 365.709 3.06245 401.344C-2.23121 436.979 0.944983 487.091 0.944983 487.091H160.272L147.579 334.221C147.579 334.221 177.212 266.599 173.777 254.906C170.342 243.213 168.225 242.099 168.225 242.099Z" fill="#3F3D56"/>
<path d="M91.996 153.011H67.6452V247.667H91.996V153.011Z" fill="#3F3D56"/>
<path d="M167.166 174.17H142.815V252.122H167.166V174.17Z" fill="#3F3D56"/>
<path d="M387.349 175.84L437.672 161.364L489.55 183.636L511.784 368.493L384.736 372.947V343.13C384.736 343.13 371.739 312.646 384.206 272.167C396.382 232.634 370.972 229.293 370.972 229.293L387.349 175.84Z" fill="#E6E6E6"/>
<path d="M364.09 251.008L463.611 245.44L490.609 326.176C490.609 326.176 507.019 381.299 512.313 416.934C517.607 452.57 531.37 496 531.37 496H372.043L367.267 349.005L364.09 251.008Z" fill="#3F3D56"/>
<path d="M464.67 161.92H440.319V256.576H464.67V161.92Z" fill="#3F3D56"/>
<path d="M389.5 183.079H365.149V261.031H389.5V183.079Z" fill="#3F3D56"/>
<path d="M404.346 151.743C435.092 151.743 460.017 125.526 460.017 93.1868C460.017 60.8473 435.092 34.6309 404.346 34.6309C373.6 34.6309 348.675 60.8473 348.675 93.1868C348.675 125.526 373.6 151.743 404.346 151.743Z" fill="#A0616A"/>
<path d="M459.105 124.952C459.105 124.952 432.171 90.9562 421.397 93.7892C410.624 96.6222 417.357 100.872 417.357 100.872L390.423 69.7087C390.423 69.7087 368.876 61.2097 348.675 88.1232C348.675 88.1232 336.555 65.4592 348.675 52.7107C360.795 39.9623 364.836 41.3788 367.529 34.2963C370.222 27.2138 389.076 21.5478 389.076 21.5478C389.076 21.5478 387.995 11.3535 393.922 16.4506C399.85 21.5478 414.653 21.5478 414.653 21.5478C414.653 21.5478 414.738 15.8818 420.761 21.5478C426.784 27.2138 433.518 24.3808 433.518 24.3808C433.518 24.3808 433.518 34.1847 438.231 34.2405C442.945 34.2963 451.025 27.2138 452.372 32.8798C453.718 38.5458 463.145 41.3788 464.492 58.3767C465.839 75.3747 459.105 124.952 459.105 124.952Z" fill="#2F2E41"/>
<path d="M252.633 212.35L295.735 298.055L289.827 301.343L246.725 215.637C246.099 214.393 246.551 212.849 247.734 212.191L249.357 211.288C250.539 210.63 252.007 211.106 252.633 212.35Z" fill="#3F3D56"/>
<path d="M324.441 330.446C313.476 327.472 302.004 332.737 296.501 343.148C289.61 356.184 281.739 366.878 284.375 341.39C287.276 313.331 271.626 290.668 283.925 283.825C296.225 276.982 308.925 297.779 328.914 316.609C347.441 334.061 336.757 333.786 324.441 330.446Z" fill="#3F3D56"/>
<path d="M260.969 229.688C273.4 223.718 286.405 225.625 290.015 233.947C293.626 242.268 286.476 253.851 274.04 259.821C269.104 262.278 263.68 263.455 258.222 263.255L205.249 287.85L194.805 261.457L248.136 240.013C251.569 235.543 255.969 232.002 260.969 229.688Z" fill="#FFB6B6"/>
<path d="M47.4983 165.031C36.6847 173.029 33.605 188.463 40.4542 200.356C64.8841 242.774 117.963 334.264 121.408 334.463C125.893 334.721 237.515 278.846 237.515 278.846L227.98 245.964L144.198 271.108L83.0271 172.238C75.2614 159.687 59.1448 156.417 47.4983 165.031Z" fill="#E6E6E6"/>
<path d="M266.266 361.311L409.454 281.643L427.031 316.594C442.193 346.743 431.232 384.168 402.568 400.116L363.251 421.992C334.587 437.94 299.006 426.411 283.844 396.262L266.266 361.311Z" fill="#6A4085"/>
<path d="M387.579 414.863C375.149 420.835 362.144 418.93 358.532 410.609C354.92 402.288 362.069 390.704 374.504 384.731C379.44 382.274 384.864 381.096 390.322 381.295L443.291 356.692L453.738 383.083L400.41 404.536C396.979 409.007 392.579 412.548 387.579 414.863Z" fill="#A0616A"/>
<path d="M495.311 179.298C508.439 177.663 520.526 186.995 522.972 200.659C531.694 249.397 550.22 354.791 547.781 357.357C544.604 360.698 426.026 397.447 426.026 397.447L412.263 366.266L490.609 326.176L473.427 209.607C471.245 194.808 481.173 181.06 495.311 179.298Z" fill="#E6E6E6"/>
</g>
<defs>
<clipPath id="clip0_99_21">
<rect width="548" height="496" fill="white"/>
</clipPath>
</defs>
</svg>
