<svg width="40" height="40" viewBox="0 0 40 40" fill="none" xmlns="http://www.w3.org/2000/svg">
<path d="M36.6668 3.33334V36.6667H3.3335V3.33334H36.6668ZM20.8245 35.6359L20.8084 35.6382L20.7097 35.6876L20.6833 35.6927L20.6623 35.6876L20.5636 35.6382C20.5499 35.6338 20.5377 35.6375 20.5309 35.6457L20.5252 35.6609L20.5015 36.2543L20.5083 36.2826L20.5236 36.2996L20.6675 36.4024L20.6881 36.4078L20.7045 36.4024L20.8483 36.2996L20.8658 36.2773L20.8705 36.2543L20.8468 35.6609C20.844 35.6468 20.8349 35.6379 20.8245 35.6359ZM21.1924 35.4796L21.1731 35.4824L20.9166 35.6106L20.9028 35.6249L20.899 35.6404L20.9239 36.237L20.9306 36.2547L20.9424 36.2646L21.2215 36.3934C21.2383 36.3985 21.2533 36.393 21.261 36.3823L21.2666 36.3627L21.2192 35.5091C21.2158 35.4925 21.2049 35.4819 21.1924 35.4796ZM20.1988 35.4824C20.1852 35.4755 20.1699 35.4795 20.1608 35.4897L20.1528 35.5091L20.1054 36.3627C20.1045 36.3787 20.1152 36.3915 20.1288 36.3952L20.1505 36.3934L20.4296 36.2646L20.4427 36.2534L20.4481 36.237L20.4729 35.6404L20.4686 35.6229L20.4554 35.6106L20.1988 35.4824Z" stroke="#492727" stroke-width="0.000758333"/>
<path fill-rule="evenodd" clip-rule="evenodd" d="M25.5558 11.6667C26.3229 11.6667 26.9447 12.2885 26.9447 13.0556V15.8333H28.3336C30.6348 15.8333 32.5002 17.6988 32.5002 20V31.1111C33.2673 31.1111 33.8891 31.7329 33.8891 32.5C33.8891 33.2671 33.2673 33.8889 32.5002 33.8889H7.50022C6.73316 33.8889 6.11133 33.2671 6.11133 32.5C6.11133 31.7329 6.73316 31.1111 7.50022 31.1111V20C7.50022 17.6988 9.3657 15.8333 11.6669 15.8333H13.0558V13.0556C13.0558 12.2885 13.6776 11.6667 14.4447 11.6667C15.2117 11.6667 15.8336 12.2885 15.8336 13.0556V15.8333H18.6113V13.0556C18.6113 12.2885 19.2331 11.6667 20.0002 11.6667C20.7673 11.6667 21.3891 12.2885 21.3891 13.0556V15.8333H24.1669V13.0556C24.1669 12.2885 24.7887 11.6667 25.5558 11.6667ZM27.9267 25.1488C26.6173 26.4582 24.4942 26.4582 23.1848 25.1488C22.9601 24.924 22.5959 24.924 22.3712 25.1488C21.0617 26.4582 18.9387 26.4582 17.6292 25.1488C17.4045 24.924 17.0403 24.924 16.8156 25.1488C15.5062 26.4582 13.3831 26.4582 12.0737 25.1488C11.849 24.924 11.4848 24.924 11.2601 25.1488L10.278 26.1308V31.1111H29.7224V26.1308L28.7404 25.1488C28.5156 24.924 28.1515 24.924 27.9267 25.1488ZM28.3336 18.6111H11.6669C10.9546 18.6111 10.3676 19.1473 10.2873 19.838L10.278 20V22.5026C11.514 21.9406 13.0212 22.1679 14.0379 23.1846C14.2625 23.4093 14.6268 23.4093 14.8515 23.1846C16.1609 21.8751 18.284 21.8751 19.5934 23.1846C19.8181 23.4093 20.1823 23.4093 20.407 23.1846C21.7165 21.8751 23.8395 21.8751 25.149 23.1846C25.3737 23.4093 25.7379 23.4093 25.9626 23.1846C26.9157 22.2315 28.3 21.9721 29.4877 22.4065L29.7224 22.5026V20C29.7224 19.2877 29.1863 18.7007 28.4955 18.6205L28.3336 18.6111ZM20.6947 6.11111C20.3468 6.80692 20.5217 7.31021 20.783 7.73568L20.9314 7.96074L21.0072 8.06877C21.2067 8.35202 21.3891 8.61092 21.3891 8.88889C21.3891 9.65595 20.7673 10.2778 20.0002 10.2778C19.2331 10.2778 18.6113 9.65595 18.6113 8.88889C18.6113 8.12184 19.3058 6.80556 20.6947 6.11111ZM15.1391 6.11111C14.7912 6.80692 14.9662 7.31021 15.2274 7.73568L15.3759 7.96074L15.4516 8.06877C15.6511 8.35202 15.8336 8.61092 15.8336 8.88889C15.8336 9.65595 15.2117 10.2778 14.4447 10.2778C13.6776 10.2778 13.0558 9.65595 13.0558 8.88889C13.0558 8.12184 13.7502 6.80556 15.1391 6.11111ZM26.2502 6.11111C25.9023 6.80692 26.0773 7.31021 26.3386 7.73568L26.487 7.96074L26.5627 8.06877C26.7623 8.35202 26.9447 8.61092 26.9447 8.88889C26.9447 9.65595 26.3229 10.2778 25.5558 10.2778C24.7887 10.2778 24.1669 9.65595 24.1669 8.88889C24.1669 8.12184 24.8613 6.80556 26.2502 6.11111Z" fill="#6A4085" stroke="#492727" stroke-width="0.000758333"/>
</svg>
