<svg width="30" height="30" viewBox="0 0 30 30" fill="none" xmlns="http://www.w3.org/2000/svg">
<g clip-path="url(#clip0_228_224)">
<path d="M20.0982 21.0647V17.2856L22.4419 14.9419V21.8269C22.4419 23.2041 21.2991 24.3469 19.9519 24.3469H6.24098C4.86379 24.3469 3.75098 23.2041 3.75098 21.8269V8.145C3.75098 6.76781 4.86473 5.625 6.24098 5.625H20.1572V5.65406L17.8135 7.96875H7.03223C6.53441 7.96875 6.09473 8.40844 6.09473 8.93531V21.0647C6.09473 21.5925 6.53441 22.0022 7.03223 22.0022H19.1616C19.6594 22.0022 20.0982 21.5916 20.0982 21.0647ZM22.3247 6.76781L24.8147 9.25781L25.9575 8.115L23.4675 5.625L22.3247 6.76781ZM13.5647 15.5569L16.0257 18.0469L23.9654 10.1072L21.5044 7.61719L13.5647 15.5569ZM11.8069 19.7756L15.2054 18.8672L12.7154 16.3772L11.8069 19.7756Z" fill="#6A4085" stroke="#6A4085" stroke-width="0.00064"/>
</g>
<defs>
<clipPath id="clip0_228_224">
<rect width="30" height="30" fill="white"/>
</clipPath>
</defs>
</svg>
