<svg width="30" height="30" viewBox="0 0 30 30" fill="none" xmlns="http://www.w3.org/2000/svg">
<path d="M20.518 4.79532C23.8189 4.79532 26.4955 7.47188 26.4955 10.7728C26.4955 12.4688 25.7886 13.9969 24.6543 15.0853L15.0008 24.7875L5.17207 14.91C4.14082 13.8356 3.5052 12.3797 3.5052 10.7728C3.5052 7.47094 6.18176 4.79532 9.4827 4.79532C11.9689 4.79532 14.0999 6.31407 15.0008 8.47407C15.9018 6.31407 18.0318 4.79532 20.518 4.79532ZM20.518 3.79594C18.3196 3.79594 16.3002 4.81688 14.9999 6.49969C13.7005 4.81688 11.6811 3.79594 9.48176 3.79594C5.63426 3.79594 2.50488 6.92626 2.50488 10.7728C2.50488 12.5803 3.19582 14.2959 4.4502 15.6028L14.9999 26.205L25.3621 15.7913C26.7308 14.4769 27.4949 12.69 27.4949 10.7738C27.4949 6.92626 24.3646 3.79688 20.518 3.79688V3.79594Z" fill="#6A4085" stroke="#6A4085" stroke-width="1.92"/>
<path d="M23.3286 10.1144C22.1521 12.111 20.5642 13.838 19.0698 15.59" stroke="black" stroke-width="3" stroke-linecap="round"/>
<path d="M24.0894 13.0043C22.3746 14.1088 20.3235 15.0971 18.8674 16.5533C17.9868 17.4338 21.1611 15.4859 22.0783 14.6436C22.7492 14.0275 21.8973 14.8135 21.7319 14.9647C20.9188 15.7077 20.1304 16.463 19.3406 17.2293C18.6334 17.9153 17.8562 18.4377 17.3295 19.308C16.6322 20.46 15.9557 21.4129 14.9635 22.3499C14.0155 23.2453 13.9902 22.9195 13.2059 21.7753C12.3978 20.5965 11.3835 19.5936 10.7047 18.3278C10.29 17.5543 9.65427 16.9315 9.21753 16.1815C8.95602 15.7324 8.59354 15.1591 8.44014 14.6605C8.32055 14.2718 8.32316 13.8928 8.08524 13.5451C7.9974 13.4167 7.09796 12.0703 6.93605 12.2945C6.77538 12.517 6.49007 14.0276 6.44595 13.9338C5.85177 12.6712 6.14175 10.724 6.14175 9.35392C6.14175 8.91282 6.09161 8.40866 6.3192 8.01038C6.34345 7.96794 6.85756 7.36231 6.75015 7.37664C6.50482 7.40935 6.20431 8.11276 6.05725 8.28923C5.65 8.77793 5.42492 9.17925 5.30521 9.80177C5.2139 10.2766 5.28647 10.6655 4.92496 11.027C3.8643 12.0877 5.21412 10.7476 5.54181 10.2412C6.24866 9.14875 6.71692 7.19315 7.90779 6.54009C8.82057 6.03953 8.99608 6.03017 9.87662 6.31194C10.7415 6.58869 11.6474 7.21431 12.3102 7.83293C12.9021 8.38541 13.5957 8.57815 14.0678 9.28632C14.9529 10.6139 15.4198 12.7154 15.4198 14.314C15.4198 16.2341 15.3573 18.0232 15.1071 19.8994C15.0867 20.0531 14.9165 20.2308 14.7776 20.0515C14.0497 19.1123 13.7653 17.5656 13.4847 16.4434C13.0642 14.7611 13.3275 13.0258 12.9102 11.3566C12.7973 10.9051 12.6981 10.324 12.4116 9.94542C12.238 9.71595 11.8722 9.83626 11.6342 9.71727C10.7828 9.29156 10.374 8.74553 9.34428 8.74553C7.93566 8.74553 7.92324 10.4746 8.05144 11.6101C8.25402 13.4044 9.6189 14.3843 10.0963 15.9956C10.2797 16.6146 10.5273 16.9505 10.9751 17.3983C11.3039 17.7271 11.161 17.5054 11.161 17.0096C11.161 15.7563 11.2075 14.493 11.1441 13.2409C11.111 12.5863 11.1024 11.532 10.6371 10.9932C10.0225 10.2816 9.65436 11.6453 9.61468 12.0157C9.49301 13.1512 9.71999 14.3192 10.0963 15.3872C10.5783 16.7549 11.4856 17.7022 12.2257 18.9024C13.1838 20.4561 13.7998 18.7197 14.5579 17.7363C15.923 15.9653 17.4285 14.9272 19.4589 14.0183C20.8901 13.3776 24.3936 12.3894 24.3936 10.2665C24.3936 9.07413 22.6694 9.03065 21.9093 8.32303C20.7323 7.22713 19.0566 9.25753 18.4618 10.1144C17.2948 11.7955 16.4213 14.1292 16.6704 16.2153C16.8641 17.8378 18.5084 14.8557 18.766 14.5084C19.2502 13.8554 19.6261 13.2273 19.8138 12.4297C19.9517 11.8433 20.0232 11.2604 20.4813 10.8158C21.5238 9.80393 23.3616 10.4556 24.5035 10.9594C24.6111 11.0069 25.0549 11.4777 24.9682 11.1791C24.8808 10.8779 24.6256 10.6783 24.4781 10.4102C24.3492 10.1758 23.7429 8.58496 23.9458 8.61878C24.4994 8.71105 25.2188 10.238 25.5175 10.6975C25.7415 11.0421 25.8128 11.3766 25.7541 11.7875C25.606 12.824 24.7818 10.9981 24.7147 10.8496C24.4716 10.3113 24.2415 9.85155 24.2415 9.24407C24.2415 8.33745 24.3006 7.68531 23.3205 7.32594C22.1934 6.91268 20.8013 7.07244 19.6194 7.07244C18.0883 7.07244 17.1184 7.28627 16.1042 8.52583C15.6317 9.10336 15.1156 9.6158 15.1156 10.4102C15.1156 11.2242 15.1156 12.0382 15.1156 12.8522" stroke="#6A4085" stroke-width="3" stroke-linecap="round"/>
<path d="M5.8374 14.3732C5.8374 15.7689 7.66321 16.0463 8.72728 16.0463" stroke="#6A4085" stroke-width="3" stroke-linecap="round"/>
</svg>
